{
  "accessors": [
    {
      "bufferView": 2,
      "componentType": 5126,
      "count": 65532,
      "max": [
        2.1912999153137207,
        14.983099937438965,
        3.6312999725341797
      ],
      "min": [
        -3.3589000701904297,
        -13.413900375366211,
        -0.11420000344514847
      ],
      "type": "VEC3"
    },
    {
      "bufferView": 2,
      "byteOffset": 786384,
      "componentType": 5126,
      "count": 65532,
      "max": [
        0.9999964833259583,
        1.0,
        1.0
      ],
      "min": [
        -1.0,
        -0.9999929070472717,
        -1.0
      ],
      "type": "VEC3"
    },
    {
      "bufferView": 1,
      "componentType": 5126,
      "count": 65532,
      "max": [
        0.9979339838027954,
        0.9978970289230347
      ],
      "min": [
        0.002088000066578388,
        0.006068999879062176
      ],
      "type": "VEC2"
    },
    {
      "bufferView": 0,
      "componentType": 5125,
      "count": 290919,
      "type": "SCALAR"
    },
    {
      "bufferView": 2,
      "byteOffset": 1572768,
      "componentType": 5126,
      "count": 65532,
      "max": [
        2.15939998626709,
        13.491600036621094,
        2.5051000118255615
      ],
      "min": [
        -2.6607000827789307,
        -13.413000106811523,
        -0.01769999973475933
      ],
      "type": "VEC3"
    },
    {
      "bufferView": 2,
      "byteOffset": 2359152,
      "componentType": 5126,
      "count": 65532,
      "max": [
        1.0,
        0.9999920725822449,
        1.0
      ],
      "min": [
        -1.0,
        -0.9996384382247925,
        -1.0
      ],
      "type": "VEC3"
    },
    {
      "bufferView": 1,
      "byteOffset": 524256,
      "componentType": 5126,
      "count": 65532,
      "max": [
        0.9960539937019348,
        0.8261619806289673
      ],
      "min": [
        0.002099999925121665,
        0.0316770002245903
      ],
      "type": "VEC2"
    },
    {
      "bufferView": 0,
      "byteOffset": 1163676,
      "componentType": 5125,
      "count": 362004,
      "type": "SCALAR"
    },
    {
      "bufferView": 2,
      "byteOffset": 3145536,
      "componentType": 5126,
      "count": 65532,
      "max": [
        2.1298999786376953,
        14.974499702453613,
        3.624000072479248
      ],
      "min": [
        -1.4912999868392944,
        -10.70009994506836,
        -0.0010000000474974513
      ],
      "type": "VEC3"
    },
    {
      "bufferView": 2,
      "byteOffset": 3931920,
      "componentType": 5126,
      "count": 65532,
      "max": [
        1.0,
        0.9999997019767761,
        1.0
      ],
      "min": [
        -0.9999992251396179,
        -0.9973243474960327,
        -1.0
      ],
      "type": "VEC3"
    },
    {
      "bufferView": 1,
      "byteOffset": 1048512,
      "componentType": 5126,
      "count": 65532,
      "max": [
        0.9893630146980286,
        0.9979119896888733
      ],
      "min": [
        0.0021089999936521053,
        0.6589869856834412
      ],
      "type": "VEC2"
    },
    {
      "bufferView": 0,
      "byteOffset": 2611692,
      "componentType": 5125,
      "count": 365277,
      "type": "SCALAR"
    },
    {
      "bufferView": 2,
      "byteOffset": 4718304,
      "componentType": 5126,
      "count": 65532,
      "max": [
        2.118000030517578,
        14.968000411987305,
        2.9240000247955322
      ],
      "min": [
        -2.7190001010894775,
        -12.722999572753906,
        -0.09849999845027924
      ],
      "type": "VEC3"
    },
    {
      "bufferView": 2,
      "byteOffset": 5504688,
      "componentType": 5126,
      "count": 65532,
      "max": [
        1.0,
        0.9999679327011108,
        1.0
      ],
      "min": [
        -1.0,
        -0.9999982118606567,
        -1.0
      ],
      "type": "VEC3"
    },
    {
      "bufferView": 1,
      "byteOffset": 1572768,
      "componentType": 5126,
      "count": 65532,
      "max": [
        0.9420440196990967,
        0.9979060292243958
      ],
      "min": [
        0.0020759999752044678,
        0.495294988155365
      ],
      "type": "VEC2"
    },
    {
      "bufferView": 0,
      "byteOffset": 4072800,
      "componentType": 5125,
      "count": 363435,
      "type": "SCALAR"
    },
    {
      "bufferView": 2,
      "byteOffset": 6291072,
      "componentType": 5126,
      "count": 65532,
      "max": [
        2.1821999549865723,
        11.77750015258789,
        3.3489999771118164
      ],
      "min": [
        -3.3292999267578125,
        -13.413800239562988,
        -0.013399999588727951
      ],
      "type": "VEC3"
    },
    {
      "bufferView": 2,
      "byteOffset": 7077456,
      "componentType": 5126,
      "count": 65532,
      "max": [
        1.0,
        0.9999980330467224,
        1.0
      ],
      "min": [
        -1.0,
        -0.9999992251396179,
        -1.0
      ],
      "type": "VEC3"
    },
    {
      "bufferView": 1,
      "byteOffset": 2097024,
      "componentType": 5126,
      "count": 65532,
      "max": [
        0.997223973274231,
        0.9113109707832336
      ],
      "min": [
        0.002073999959975481,
        0.27098000049591064
      ],
      "type": "VEC2"
    },
    {
      "bufferView": 0,
      "byteOffset": 5526540,
      "componentType": 5125,
      "count": 361167,
      "type": "SCALAR"
    },
    {
      "bufferView": 2,
      "byteOffset": 7863840,
      "componentType": 5126,
      "count": 48502,
      "max": [
        2.18179988861084,
        13.293800354003906,
        3.626800060272217
      ],
      "min": [
        -3.164099931716919,
        -13.409700393676758,
        0.07400000095367432
      ],
      "type": "VEC3"
    },
    {
      "bufferView": 2,
      "byteOffset": 8445864,
      "componentType": 5126,
      "count": 48502,
      "max": [
        0.9999993443489075,
        0.9999969005584717,
        0.9999756217002869
      ],
      "min": [
        -1.0,
        -1.0,
        -1.0
      ],
      "type": "VEC3"
    },
    {
      "bufferView": 1,
      "byteOffset": 2621280,
      "componentType": 5126,
      "count": 48502,
      "max": [
        0.9975410103797913,
        0.7405890226364136
      ],
      "min": [
        0.0021150000393390656,
        0.164109006524086
      ],
      "type": "VEC2"
    },
    {
      "bufferView": 0,
      "byteOffset": 6971208,
      "componentType": 5125,
      "count": 262056,
      "type": "SCALAR"
    }
  ],
  "asset": {
    "extras": {
      "author": "emm (https://sketchfab.com/edemaistre)",
      "license": "CC-BY-4.0 (http://creativecommons.org/licenses/by/4.0/)",
      "source": "https://sketchfab.com/3d-models/paris-catacombs-large-gallery-39e7050d272f4aac8493497621b86f39",
      "title": "Paris catacombs - Large gallery"
    },
    "generator": "Sketchfab-12.66.0",
    "version": "2.0"
  },
  "bufferViews": [
    {
      "buffer": 0,
      "byteLength": 8019432,
      "name": "floatBufferViews",
      "target": 34963
    },
    {
      "buffer": 0,
      "byteLength": 3009296,
      "byteOffset": 8019432,
      "byteStride": 8,
      "name": "floatBufferViews",
      "target": 34962
    },
    {
      "buffer": 0,
      "byteLength": 9027888,
      "byteOffset": 11028728,
      "byteStride": 12,
      "name": "floatBufferViews",
      "target": 34962
    }
  ],
  "buffers": [
    {
      "byteLength": 20056616,
      "uri": "scene.bin"
    }
  ],
  "extensionsUsed": [
    "KHR_materials_unlit"
  ],
  "images": [
    {
      "uri": "textures/main_baseColor.jpeg"
    }
  ],
  "materials": [
    {
      "extensions": {
        "KHR_materials_unlit": {}
      },
      "name": "main",
      "pbrMetallicRoughness": {
        "baseColorTexture": {
          "index": 0
        },
        "metallicFactor": 0.0
      }
    }
  ],
  "meshes": [
    {
      "name": "Object_0",
      "primitives": [
        {
          "attributes": {
            "NORMAL": 1,
            "POSITION": 0,
            "TEXCOORD_0": 2
          },
          "indices": 3,
          "material": 0,
          "mode": 4
        }
      ]
    },
    {
      "name": "Object_1",
      "primitives": [
        {
          "attributes": {
            "NORMAL": 5,
            "POSITION": 4,
            "TEXCOORD_0": 6
          },
          "indices": 7,
          "material": 0,
          "mode": 4
        }
      ]
    },
    {
      "name": "Object_2",
      "primitives": [
        {
          "attributes": {
            "NORMAL": 9,
            "POSITION": 8,
            "TEXCOORD_0": 10
          },
          "indices": 11,
          "material": 0,
          "mode": 4
        }
      ]
    },
    {
      "name": "Object_3",
      "primitives": [
        {
          "attributes": {
            "NORMAL": 13,
            "POSITION": 12,
            "TEXCOORD_0": 14
          },
          "indices": 15,
          "material": 0,
          "mode": 4
        }
      ]
    },
    {
      "name": "Object_4",
      "primitives": [
        {
          "attributes": {
            "NORMAL": 17,
            "POSITION": 16,
            "TEXCOORD_0": 18
          },
          "indices": 19,
          "material": 0,
          "mode": 4
        }
      ]
    },
    {
      "name": "Object_5",
      "primitives": [
        {
          "attributes": {
            "NORMAL": 21,
            "POSITION": 20,
            "TEXCOORD_0": 22
          },
          "indices": 23,
          "material": 0,
          "mode": 4
        }
      ]
    }
  ],
  "nodes": [
    {
      "children": [
        1
      ],
      "matrix": [
        1.0,
        0.0,
        0.0,
        0.0,
        0.0,
        2.220446049250313e-16,
        -1.0,
        0.0,
        0.0,
        1.0,
        2.220446049250313e-16,
        0.0,
        0.0,
        0.0,
        0.0,
        1.0
      ],
      "name": "Sketchfab_model"
    },
    {
      "children": [
        2,
        3,
        4,
        5,
        6,
        7
      ],
      "name": "scaniverse-20210510-175433.obj.cleaner.materialmerger.gles"
    },
    {
      "mesh": 0,
      "name": "Object_2"
    },
    {
      "mesh": 1,
      "name": "Object_3"
    },
    {
      "mesh": 2,
      "name": "Object_4"
    },
    {
      "mesh": 3,
      "name": "Object_5"
    },
    {
      "mesh": 4,
      "name": "Object_6"
    },
    {
      "mesh": 5,
      "name": "Object_7"
    }
  ],
  "samplers": [
    {
      "magFilter": 9729,
      "minFilter": 9987,
      "wrapS": 10497,
      "wrapT": 10497
    }
  ],
  "scene": 0,
  "scenes": [
    {
      "name": "Sketchfab_Scene",
      "nodes": [
        0
      ]
    }
  ],
  "textures": [
    {
      "sampler": 0,
      "source": 0
    }
  ]
}
